<svg width="869" height="213" viewBox="0 0 869 213" fill="none" xmlns="http://www.w3.org/2000/svg">
<path d="M724.898 210V0H762.698V116.1H768.098L817.298 61.2H866.498L797.798 133.2L868.898 210H820.298L768.098 150.9H762.698V210H724.898Z" fill="black"/>
<path d="M596.735 212.4C585.135 212.4 574.935 209.8 566.135 204.6C557.535 199.2 550.835 191.8 546.035 182.4C541.235 173 538.835 162.2 538.835 150V61.2002H576.635V147C576.635 158.2 579.335 166.6 584.735 172.2C590.335 177.8 598.235 180.6 608.435 180.6C620.035 180.6 629.035 176.8 635.435 169.2C641.835 161.4 645.035 150.6 645.035 136.8V61.2002H682.835V210H645.635V190.5H640.235C637.835 195.5 633.335 200.4 626.735 205.2C620.135 210 610.135 212.4 596.735 212.4Z" fill="black"/>
<path d="M460.348 210V0H498.148V210H460.348Z" fill="black"/>
<path d="M277.8 210V0H364.2C377.4 0 389 2.7 399 8.10001C409.2 13.3 417.1 20.7 422.7 30.3C428.5 39.9 431.4 51.3 431.4 64.5V68.7C431.4 81.7 428.4 93.1 422.4 102.9C416.6 112.5 408.6 120 398.4 125.4C388.4 130.6 377 133.2 364.2 133.2H317.4V210H277.8ZM317.4 97.2H360.3C369.7 97.2 377.3 94.6 383.1 89.4C388.9 84.2 391.8 77.1 391.8 68.1V65.1C391.8 56.1 388.9 49 383.1 43.8C377.3 38.6 369.7 36 360.3 36H317.4V97.2Z" fill="black"/>
<path d="M0 0H207V210H0V0Z" fill="url(#paint0_linear_321_28)"/>
<path d="M30 100C30 85.0883 42.0883 73 57 73H109C123.912 73 136 85.0883 136 100V153C136 167.912 123.912 180 109 180H57C42.0883 180 30 167.912 30 153V100Z" fill="#F9F9F9"/>
<defs>
<linearGradient id="paint0_linear_321_28" x1="1.72295e-09" y1="117" x2="398" y2="116.5" gradientUnits="userSpaceOnUse">
<stop stop-color="#C5312D"/>
<stop offset="1" stop-color="#DE531A"/>
</linearGradient>
</defs>
</svg>
